<?xml version="1.0" encoding="utf-8"?>
<!-- Generator: Adobe Illustrator 16.0.0, SVG Export Plug-In . SVG Version: 6.00 Build 0)  -->
<!DOCTYPE svg PUBLIC "-//W3C//DTD SVG 1.1//EN" "http://www.w3.org/Graphics/SVG/1.1/DTD/svg11.dtd">
<svg version="1.1" id="Layer_1" xmlns="http://www.w3.org/2000/svg" xmlns:xlink="http://www.w3.org/1999/xlink" x="0px" y="0px"
	 width="564.041px" height="162.086px" viewBox="0 0 564.041 162.086" enable-background="new 0 0 564.041 162.086"
	 xml:space="preserve">
<g>
	<path fill="#19115E" d="M118.073,92.597H92.204L81.955,72.573H34.904l-9.676,20.024H0L45.816,4.365h25.119L118.073,92.597z
		 M74.273,57.656L58.088,24.971L42.222,57.656H74.273z"/>
	<path fill="#19115E" d="M144.951,92.597V19.283h-34.895V4.365h93.494v14.918h-34.835v73.313H144.951z"/>
	<path fill="#19115E" d="M312.817,92.597h-25.8l-10.338-20.024h-47.01l-9.696,20.024h-25.239l45.855-88.231h25.16L312.817,92.597z
		 M269.086,57.656l-16.233-32.685l-15.876,32.685H269.086z"/>
	<path fill="#19115E" d="M325.495,4.365h47.069c9.342,0,16.233,0.354,20.825,0.866c4.571,0.604,8.679,1.797,12.271,3.637
		c3.616,1.855,6.687,4.323,9.058,7.373c2.427,3.101,3.623,6.548,3.623,10.349c0,4.107-1.491,7.909-4.454,11.366
		c-2.991,3.475-7.009,6.031-12.097,7.778c7.171,1.551,12.7,4.188,16.551,7.96c3.85,3.819,5.735,8.235,5.735,13.31
		c0,4.039-1.203,7.938-3.69,11.7c-2.529,3.821-5.877,6.863-10.211,9.085c-4.305,2.302-9.617,3.684-15.978,4.195
		c-3.908,0.357-13.467,0.522-28.635,0.612h-40.067V4.365L325.495,4.365z M349.271,19.076v20.368h15.602
		c9.242,0,15.011-0.067,17.262-0.284c4.046-0.345,7.234-1.413,9.616-3.159c2.27-1.729,3.476-4.049,3.476-6.874
		c0-2.733-1.048-4.926-3.001-6.675c-2.006-1.688-5.027-2.733-8.987-3.08c-2.33-0.248-9.122-0.296-20.3-0.296H349.271z
		 M349.271,54.169v23.567h22.019c8.553,0,14.004-0.169,16.255-0.532c3.554-0.516,6.458-1.681,8.647-3.546
		c2.262-1.867,3.337-4.324,3.337-7.505c0-2.637-0.849-4.847-2.563-6.702c-1.7-1.866-4.148-3.189-7.428-4.079
		c-3.237-0.818-10.25-1.203-21.069-1.203H349.271z"/>
</g>
<g>
	<path fill="#ED1C24" d="M517.88,0h46.161l-7.317,9.637v28.141c0,0,1.273,17.536-11.958,17.536h-14.701V9.408L517.88,0z
		 M546.258,7.858h-5.293v5.334h5.293V7.858z"/>
	<path fill="#ED1C24" d="M500.087,57.091h-53.013V42.408h52.521c4.087,0,1.017-2.605,1.017-2.605L447.074,0h8.857l12.924,10.476
		L461.776,0h8.354l8.66,7.857L476.006,0h16.478c0,0,29.466,1.756,29.466,33.471v14.515v4.028v14.487
		c0,31.704-29.466,33.472-29.466,33.472h-16.478l2.783-7.868l-8.66,7.868h-8.354l7.08-10.515l-12.924,10.515h-8.857l53.536-39.841
		C504.334,57.386,500.087,57.091,500.087,57.091z M516.588,45.903h-5.81v5.856h5.81V45.903z"/>
</g>
<text transform="matrix(1.3361 0 0 1 -0.9988 162.0862)" font-family="'Arial-ItalicMT'" font-size="71.5799">MEMBER</text>
</svg>
