<?xml version="1.0" encoding="utf-8"?>
<!-- Generator: Adobe Illustrator 16.0.0, SVG Export Plug-In . SVG Version: 6.00 Build 0)  -->
<!DOCTYPE svg PUBLIC "-//W3C//DTD SVG 1.1//EN" "http://www.w3.org/Graphics/SVG/1.1/DTD/svg11.dtd">
<svg version="1.1" id="Layer_1" xmlns="http://www.w3.org/2000/svg" xmlns:xlink="http://www.w3.org/1999/xlink" x="0px" y="0px"
	 width="564.041px" height="99.973px" viewBox="0 0 564.041 99.973" enable-background="new 0 0 564.041 99.973"
	 xml:space="preserve">
<g>
	<g>
		<path d="M118.073,92.597H92.204L81.955,72.572H34.904l-9.676,20.025H0L45.816,4.365h25.119L118.073,92.597z M74.273,57.655
			L58.088,24.971L42.222,57.655H74.273z"/>
		<path d="M144.951,92.597V19.283h-34.894V4.365h93.494v14.918h-34.835v73.314H144.951z"/>
		<path d="M312.817,92.597h-25.8l-10.338-20.025h-47.01l-9.696,20.025h-25.239l45.855-88.232h25.16L312.817,92.597z M269.086,57.655
			l-16.233-32.684l-15.876,32.684H269.086z"/>
		<path d="M325.496,4.365h47.069c9.342,0,16.233,0.354,20.825,0.867c4.571,0.604,8.679,1.797,12.271,3.636
			c3.616,1.856,6.686,4.324,9.057,7.373c2.427,3.101,3.623,6.548,3.623,10.349c0,4.107-1.491,7.909-4.454,11.366
			c-2.991,3.475-7.009,6.032-12.096,7.779c7.17,1.55,12.7,4.187,16.55,7.96c3.85,3.819,5.736,8.235,5.736,13.309
			c0,4.039-1.203,7.939-3.691,11.7c-2.529,3.822-5.877,6.864-10.211,9.085c-4.304,2.302-9.617,3.684-15.977,4.196
			c-3.908,0.357-13.467,0.522-28.635,0.612h-40.067V4.365z M349.271,19.076v20.369h15.602c9.242,0,15.01-0.068,17.261-0.285
			c4.046-0.344,7.235-1.413,9.617-3.159c2.269-1.729,3.475-4.049,3.475-6.874c0-2.733-1.048-4.926-3.001-6.675
			c-2.006-1.688-5.027-2.733-8.987-3.08c-2.33-0.248-9.122-0.296-20.3-0.296H349.271z M349.271,54.169v23.568h22.019
			c8.552,0,14.003-0.169,16.254-0.533c3.554-0.515,6.458-1.68,8.648-3.546c2.262-1.867,3.337-4.324,3.337-7.504
			c0-2.637-0.849-4.847-2.564-6.703c-1.7-1.866-4.148-3.189-7.427-4.079c-3.238-0.818-10.25-1.203-21.07-1.203H349.271z"/>
	</g>
	<g>
		<path fill="#ED1C24" d="M517.88,0h46.161l-7.317,9.637v28.141c0,0,1.274,17.536-11.958,17.536h-14.701V9.408L517.88,0z
			 M546.258,7.858h-5.293v5.334h5.293V7.858z"/>
		<path fill="#ED1C24" d="M500.087,57.091h-53.012V42.408h52.52c4.087,0,1.017-2.605,1.017-2.605L447.075,0h8.857l12.924,10.476
			L461.776,0h8.353l8.661,7.858L476.006,0h16.478c0,0,29.466,1.756,29.466,33.471v14.515v4.028v14.487
			c0,31.704-29.466,33.472-29.466,33.472h-16.478l2.784-7.868l-8.661,7.868h-8.353l7.08-10.515l-12.924,10.515h-8.857l53.536-39.841
			C504.334,57.386,500.087,57.091,500.087,57.091z M516.588,45.903h-5.809v5.856h5.809V45.903z"/>
	</g>
</g>
</svg>
