<?xml version="1.0" encoding="utf-8"?>
<!-- Generator: Adobe Illustrator 16.0.0, SVG Export Plug-In . SVG Version: 6.00 Build 0)  -->
<!DOCTYPE svg PUBLIC "-//W3C//DTD SVG 1.1//EN" "http://www.w3.org/Graphics/SVG/1.1/DTD/svg11.dtd">
<svg version="1.1" id="Layer_1" xmlns="http://www.w3.org/2000/svg" xmlns:xlink="http://www.w3.org/1999/xlink" x="0px" y="0px"
	 width="628.041px" height="162.366px" viewBox="0 0 628.041 162.366" enable-background="new 0 0 628.041 162.366"
	 xml:space="preserve">
<g>
	<g>
		<path fill="#19115E" d="M118.073,92.597H92.204L81.955,72.573H34.904l-9.676,20.024H0L45.816,4.365h25.119L118.073,92.597z
			 M74.273,57.656L58.088,24.971L42.222,57.656H74.273z"/>
		<path fill="#19115E" d="M144.951,92.597V19.283h-34.895V4.365h93.494v14.918h-34.835v73.313H144.951z"/>
		<path fill="#19115E" d="M312.817,92.597h-25.8l-10.338-20.024h-47.01l-9.696,20.024h-25.239l45.855-88.231h25.16L312.817,92.597z
			 M269.086,57.656l-16.233-32.685l-15.876,32.685H269.086z"/>
		<path fill="#19115E" d="M325.495,4.365h47.069c9.342,0,16.233,0.354,20.825,0.866c4.571,0.604,8.679,1.797,12.271,3.637
			c3.616,1.855,6.687,4.323,9.058,7.373c2.427,3.101,3.623,6.548,3.623,10.349c0,4.107-1.491,7.909-4.454,11.366
			c-2.991,3.475-7.009,6.031-12.097,7.778c7.171,1.551,12.7,4.188,16.551,7.96c3.85,3.819,5.735,8.235,5.735,13.31
			c0,4.039-1.203,7.938-3.69,11.7c-2.529,3.821-5.877,6.863-10.211,9.085c-4.305,2.302-9.617,3.684-15.978,4.195
			c-3.908,0.357-13.467,0.522-28.635,0.612h-40.067V4.365L325.495,4.365z M349.271,19.076v20.368h15.602
			c9.242,0,15.011-0.067,17.262-0.284c4.046-0.345,7.234-1.413,9.616-3.159c2.27-1.729,3.476-4.049,3.476-6.874
			c0-2.733-1.048-4.926-3.001-6.675c-2.006-1.688-5.027-2.733-8.987-3.08c-2.33-0.248-9.122-0.296-20.3-0.296H349.271z
			 M349.271,54.169v23.567h22.019c8.553,0,14.004-0.169,16.255-0.532c3.554-0.516,6.458-1.681,8.647-3.546
			c2.262-1.867,3.337-4.324,3.337-7.505c0-2.637-0.849-4.847-2.563-6.702c-1.7-1.866-4.148-3.189-7.428-4.079
			c-3.237-0.818-10.25-1.203-21.069-1.203H349.271z"/>
	</g>
	<g>
		<path fill="#ED1C24" d="M553.071,0h74.971l-11.884,15.651v45.703c0,0,2.067,28.48-19.422,28.48H572.86V15.28L553.071,0z
			 M599.159,12.761h-8.597v8.663h8.597V12.761z"/>
		<path fill="#ED1C24" d="M524.173,92.722h-86.099V68.876h85.299c6.638,0,1.651-4.232,1.651-4.232L438.074,0h14.386l20.989,17.014
			L461.95,0h13.567l14.065,12.761L485.063,0h26.761c0,0,47.856,2.852,47.856,54.36v23.573v6.542v23.529
			c0,51.491-47.856,54.361-47.856,54.361h-26.761l4.521-12.778l-14.065,12.778H461.95l11.499-17.077l-20.989,17.077h-14.386
			l86.948-64.706C531.071,93.201,524.173,92.722,524.173,92.722z M550.972,74.551h-9.436v9.511h9.436V74.551z"/>
	</g>
	<g>
		<path d="M3.204,162.086l14.29-51.238h11.254l6.912,33.203c0.902,4.357,1.494,8.54,1.774,12.548
			c1.898-3.448,5.074-8.12,9.527-14.016l24.003-31.735h11.441l-14.29,51.238h-9.013l7.145-24.92
			c1.65-5.755,4.016-12.21,7.099-19.363c-1.961,3.332-4.39,6.921-7.285,10.765l-25.498,33.519h-8.826l-6.865-32.854
			c-0.623-3.005-1.074-6.512-1.354-10.52c-0.778,4.497-1.541,8.062-2.288,10.694l-9.106,32.68H3.204z"/>
		<path d="M82.967,162.086l14.337-51.238h49.408l-1.634,5.837h-40.255l-4.483,15.938h39.228l-1.634,5.837H98.705l-4.95,17.825
			h43.104l-1.634,5.802H82.967z"/>
		<path d="M146.665,162.086l14.29-51.238h11.254l6.912,33.203c0.902,4.357,1.494,8.54,1.774,12.548
			c1.898-3.448,5.074-8.12,9.527-14.016l24.003-31.735h11.441l-14.29,51.238h-9.013l7.145-24.92
			c1.65-5.755,4.016-12.21,7.099-19.363c-1.961,3.332-4.39,6.921-7.285,10.765l-25.498,33.519h-8.826l-6.865-32.854
			c-0.623-3.005-1.074-6.512-1.354-10.52c-0.778,4.497-1.541,8.062-2.288,10.694l-9.106,32.68H146.665z"/>
		<path d="M226.287,162.086l14.337-51.238h21.201c3.86,0,6.725,0.117,8.593,0.35c3.051,0.396,5.627,1.089,7.729,2.079
			c2.102,0.991,3.728,2.342,4.879,4.055c1.152,1.713,1.729,3.605,1.729,5.68c0,2.819-1.035,5.301-3.105,7.444
			c-2.071,2.145-5.238,3.774-9.503,4.894c3.705,0.908,6.475,2.277,8.313,4.106c1.836,1.829,2.755,3.967,2.755,6.413
			c0,2.82-1.082,5.522-3.246,8.109c-2.165,2.586-5.028,4.584-8.593,5.994c-3.565,1.41-7.542,2.114-11.932,2.114H226.287z
			 M237.075,156.284h15.598c4.14,0,6.927-0.105,8.359-0.314c2.896-0.373,5.246-1.008,7.052-1.905
			c1.805-0.896,3.222-2.079,4.25-3.547c1.028-1.469,1.542-3.006,1.542-4.614c0-2.399-1.004-4.223-3.012-5.47
			c-2.008-1.246-5.83-1.87-11.465-1.87h-17.372L237.075,156.284z M243.659,132.727h13.87c6.631,0,11.402-0.791,14.313-2.376
			c2.911-1.585,4.367-3.892,4.367-6.921c0-1.444-0.452-2.691-1.354-3.739c-0.903-1.049-2.109-1.812-3.619-2.289
			c-1.51-0.478-4.351-0.717-8.522-0.717h-14.57L243.659,132.727z"/>
		<path d="M290.218,162.086l14.337-51.238h49.408l-1.635,5.837h-40.255l-4.482,15.938h39.228l-1.635,5.837h-39.228l-4.95,17.825
			h43.104l-1.635,5.802H290.218z"/>
		<path d="M354.198,162.086l14.337-51.238h28.72c5.666,0,9.962,0.355,12.889,1.066s5.223,2.044,6.889,4.001
			c1.665,1.958,2.498,4.428,2.498,7.41c0,4.171-1.821,7.631-5.464,10.381c-3.643,2.749-9.526,4.532-17.652,5.347
			c2.49,1.376,4.374,2.727,5.65,4.055c2.864,3.006,5.168,6.116,6.912,9.332l5.23,9.646h-10.228l-4.903-9.542
			c-1.774-3.448-3.799-6.431-6.071-8.947c-1.557-1.747-3.145-2.895-4.763-3.442c-1.619-0.548-4.25-0.821-7.893-0.821h-10.647
			l-6.351,22.753H354.198z M371.242,133.776h12.655c5.854,0,9.667-0.058,11.441-0.175c3.456-0.256,6.289-0.839,8.5-1.747
			c2.21-0.909,3.923-2.133,5.137-3.67c1.214-1.538,1.821-3.192,1.821-4.963c0-1.491-0.452-2.79-1.354-3.897
			c-0.903-1.106-2.086-1.857-3.549-2.254c-1.464-0.396-3.954-0.595-7.473-0.595h-22.322L371.242,133.776z"/>
	</g>
</g>
</svg>
