<?xml version="1.0" encoding="utf-8"?>
<!-- Generator: Adobe Illustrator 16.0.0, SVG Export Plug-In . SVG Version: 6.00 Build 0)  -->
<!DOCTYPE svg PUBLIC "-//W3C//DTD SVG 1.1//EN" "http://www.w3.org/Graphics/SVG/1.1/DTD/svg11.dtd">
<svg version="1.1" id="Layer_1" xmlns="http://www.w3.org/2000/svg" xmlns:xlink="http://www.w3.org/1999/xlink" x="0px" y="0px"
	 width="449.474px" height="631.443px" viewBox="0 0 449.474 631.443" enable-background="new 0 0 449.474 631.443"
	 xml:space="preserve">
<g>
	<path fill="#ED1C24" d="M433.557,209.545c0,115.733-93.717,209.537-209.418,209.537c-115.733,0-209.593-93.804-209.593-209.537
		C14.546,93.804,108.405,0,224.139,0C339.84,0,433.557,93.804,433.557,209.545L433.557,209.545z"/>
	<path fill="#FFFFFF" d="M25.217,206.403l26.246-20.589h202.52l39.603,21.807l39.178-34.676l-1.499-17.57
		c21.112,0,59.092,0,59.092,0l-75.944,70.26c0,0-12.306,11.937-23.98,3.653c-11.738-8.121-37.937-24.722-37.937-24.722
		c-30.185,30.232-71.644,66.051-71.644,66.051l-92.749,7.089l64.563-64.639v-5.597H23.329 M25.217,206.403"/>
</g>
<g>
	<path d="M65.242,630.749l23.583-41.614h6.625l6.898,41.614h-5.486l-2.103-12.004H78.051l-6.684,12.004H65.242z M80.407,614.496
		h13.746l-1.56-10.48c-0.753-4.205-1.079-7.621-1.198-10.326c-0.913,2.443-2.373,5.217-4.118,8.489L80.407,614.496z"/>
	<path d="M107.637,630.749l8.763-41.614h17.292c3.102,0,5.315,0.381,6.954,1.063c1.38,0.663,2.693,1.873,3.661,3.491
		c0.976,1.662,1.523,3.598,1.523,5.665c0,1.757-0.417,3.542-1.194,5.236c-0.643,1.797-1.52,3.178-2.61,4.427
		c-1.016,1.063-2.209,1.944-3.186,2.575c-1.134,0.687-2.269,1.023-3.63,1.337c-2.551,0.654-5.288,0.991-7.974,0.991h-10.453
		l-3.539,16.828H107.637z M117.729,609.192h9.231c3.491,0,6.121-0.361,7.803-1.241c1.666-0.727,3.003-1.849,4.078-3.412
		c0.976-1.555,1.523-3.328,1.523-4.99c0-1.448-0.409-2.499-0.873-3.416c-0.484-0.813-1.222-1.432-2.253-1.868
		c-0.972-0.393-2.88-0.575-5.538-0.575h-10.679L117.729,609.192z"/>
	<path d="M146.442,630.749l8.783-41.614h17.352c2.939,0,5.252,0.381,6.815,1.063c1.38,0.663,2.737,1.873,3.662,3.491
		c1.055,1.662,1.464,3.598,1.464,5.665c0,1.757-0.306,3.542-1.028,5.236c-0.718,1.797-1.583,3.178-2.717,4.427
		c-1.047,1.063-2.19,1.944-3.186,2.575c-1.055,0.687-2.273,1.023-3.491,1.337c-2.678,0.654-5.455,0.991-8.089,0.991h-10.445
		l-3.523,16.828H146.442z M156.502,609.192h9.243c3.451,0,6.22-0.361,7.767-1.241c1.777-0.727,3.019-1.849,4.074-3.412
		c0.948-1.555,1.464-3.328,1.464-4.99c0-1.448-0.27-2.499-0.773-3.416c-0.52-0.813-1.262-1.432-2.233-1.868
		c-0.996-0.393-2.92-0.575-5.578-0.575h-10.664L156.502,609.192z"/>
	<path d="M185.517,630.749l8.636-41.614h17.518c3.439,0,6.097,0.25,7.871,0.838c1.718,0.639,3.138,1.749,4.13,3.313
		c1.055,1.666,1.555,3.609,1.555,5.97c0,3.404-1.19,6.26-3.356,8.478c-2.237,2.262-5.764,3.642-10.75,4.305
		c1.523,1.197,2.682,2.186,3.432,3.253c1.836,2.411,3.217,5.042,4.272,7.684l3.185,7.775h-6.208l-3.043-7.775
		c-1.087-2.772-2.225-5.272-3.662-7.295c-1.016-1.381-1.948-2.281-2.88-2.749c-1.055-0.433-2.658-0.65-4.852-0.65h-6.486
		l-3.812,18.47H185.517z M195.795,607.769h7.764c3.59,0,5.839-0.036,6.974-0.21c2.086-0.163,3.776-0.683,5.165-1.369
		c1.325-0.675,2.376-1.65,3.126-2.943c0.718-1.254,1.114-2.61,1.114-3.991c0-1.305-0.305-2.36-0.869-3.249
		c-0.492-0.849-1.301-1.547-2.19-1.884c-0.912-0.25-2.396-0.433-4.482-0.433h-13.631L195.795,607.769z"/>
	<path d="M230.074,613.299c0-7.371,2.189-13.488,6.411-17.979c4.34-4.61,9.497-6.871,15.594-6.871c5.185,0,9.402,1.587,12.75,5.046
		c3.186,3.399,4.852,7.878,4.852,13.563c0,4.121-0.773,7.807-2.416,11.23c-1.337,2.642-2.86,4.883-4.708,6.783
		c-1.869,1.817-3.849,3.305-6.063,4.348c-2.784,1.456-5.775,2.023-8.938,2.023c-3.384,0-6.422-0.738-9.163-2.349
		c-2.718-1.599-4.828-3.784-6.209-6.716C230.745,619.507,230.074,616.603,230.074,613.299z M235.533,613.636
		c0,2.392,0.444,4.59,1.499,6.696c1.079,2.047,2.579,3.677,4.566,4.74c2.023,1.281,4.109,1.817,6.351,1.817
		c2.107,0,4.13-0.536,6.13-1.579c1.916-0.977,3.565-2.337,5.089-4.174c1.563-1.868,2.714-4.098,3.693-6.641
		c0.794-2.753,1.242-5.304,1.242-7.895c0-4.098-1.079-7.347-3.416-9.89c-2.368-2.447-5.173-3.772-8.608-3.772
		c-4.384,0-8.208,2.012-11.556,5.717C237.199,602.33,235.533,607.32,235.533,613.636z"/>
	<path d="M285.256,630.749l-8.046-41.614h5.276l4.867,24.838c0.838,4.49,1.448,8.145,1.73,10.83c1.805-3.566,3.173-6.34,4.296-8.45
		l14.932-27.218h5.621l-22.782,41.614H285.256z"/>
	<path d="M311.39,630.749l8.676-41.614h30.026l-0.936,4.737h-24.548l-2.718,12.96h23.798l-0.912,4.761h-23.798l-3.023,14.416h26.187
		l-0.968,4.74H311.39z"/>
	<path d="M350.092,630.749l8.716-41.614h12.587c3.003,0,5.276,0.163,6.919,0.619c2.193,0.619,4.094,1.738,5.76,3.186
		c1.662,1.424,2.88,3.455,3.63,5.653c0.806,2.186,1.25,4.748,1.25,7.51c0,3.403-0.532,6.395-1.531,9.188
		c-1.048,2.717-2.437,5.196-3.904,7.283c-1.666,2.066-3.467,3.78-5.141,4.923c-1.873,1.162-3.979,2.023-6.415,2.587
		c-1.86,0.491-4.13,0.666-6.851,0.666H350.092z M356.701,626.009h6.498c2.999,0,5.688-0.219,7.989-0.869
		c1.404-0.285,2.722-0.806,3.674-1.416c1.341-0.889,2.555-2.087,3.665-3.392c1.412-1.869,2.547-3.979,3.467-6.315
		c0.861-2.424,1.306-5.098,1.306-8.133c0-3.38-0.619-5.911-1.805-7.783c-1.163-1.706-2.718-2.943-4.403-3.563
		c-1.357-0.468-3.468-0.666-6.348-0.666h-7.315L356.701,626.009z"/>
</g>
<g>
	<path d="M0,451.532h41.166c8.148,0,14.226,0.345,18.232,1.02c4.006,0.687,7.589,2.099,10.75,4.252
		c3.158,2.15,5.796,5.022,7.902,8.608c2.103,3.578,3.158,7.602,3.158,12.044c0,4.828-1.297,9.251-3.896,13.286
		c-2.598,4.022-6.125,7.045-10.572,9.057c6.271,1.824,11.1,4.946,14.468,9.346c3.38,4.403,5.062,9.58,5.062,15.527
		c0,4.685-1.087,9.238-3.269,13.662c-2.178,4.423-5.149,7.958-8.922,10.611c-3.765,2.643-8.414,4.272-13.944,4.88
		c-3.467,0.369-11.825,0.61-25.079,0.694H0V451.532z M20.795,468.674v23.817h13.626c8.104,0,13.139-0.119,15.106-0.345
		c3.563-0.425,6.359-1.654,8.398-3.686c2.035-2.047,3.055-4.729,3.055-8.045c0-3.186-0.88-5.772-2.638-7.775
		c-1.753-1.987-4.363-3.193-7.831-3.606c-2.063-0.242-7.986-0.36-17.772-0.36H20.795z M20.795,509.637v27.535h19.248
		c7.494,0,12.254-0.207,14.262-0.631c3.094-0.567,5.609-1.936,7.557-4.11c1.94-2.174,2.912-5.085,2.912-8.739
		c0-3.098-0.75-5.716-2.249-7.87c-1.496-2.154-3.666-3.729-6.498-4.709c-2.833-0.987-8.981-1.476-18.439-1.476H20.795z"/>
	<path d="M103.202,554.52V451.532h20.795V554.52H103.202z"/>
	<path d="M143.53,554.52V451.532h31.117l18.685,70.255l18.479-70.255h31.188V554.52h-19.315v-81.063l-20.442,81.063h-20.025
		l-20.371-81.063v81.063H143.53z"/>
	<path d="M356.526,554.52h-22.612l-9.001-23.394h-41.157l-8.501,23.394h-22.068l40.114-102.987h21.992L356.526,554.52z
		 M318.237,513.778l-14.187-38.21l-13.9,38.21H318.237z"/>
	<path d="M367.769,554.52V451.532h20.24l42.146,68.779v-68.779h19.319V554.52h-20.862l-41.516-67.157v67.157H367.769z"/>
</g>
</svg>
