<?xml version="1.0" encoding="utf-8"?>
<!-- Generator: Adobe Illustrator 16.0.0, SVG Export Plug-In . SVG Version: 6.00 Build 0)  -->
<!DOCTYPE svg PUBLIC "-//W3C//DTD SVG 1.1//EN" "http://www.w3.org/Graphics/SVG/1.1/DTD/svg11.dtd">
<svg version="1.1" id="Layer_1" xmlns="http://www.w3.org/2000/svg" xmlns:xlink="http://www.w3.org/1999/xlink" x="0px" y="0px"
	 width="539.257px" height="546.72px" viewBox="33.013 123.034 539.257 546.72"
	 enable-background="new 33.013 123.034 539.257 546.72" xml:space="preserve">
<g>
	<g>
		<path fill="#D1AA67" d="M308.09,637.584c-258.896,0-274.955-233.542-275.077-235.958v-0.418v-0.563
			c1.253-88.256,27.345-157.801,77.442-206.214c74.267-72.227,173.87-71.276,178.044-71.396
			c220.647,7.149,254.538,203.004,254.823,204.872l3.576,22.442l-24.779,3.893l-3.513-22.277
			c-0.547-3.363-7.559-43.238-35.896-84.941c-19.953,8.279-39.727,14.795-59.122,19.983c4.313,31.522,6.816,67.794,4.871,107.988
			l99.331,1.19l-0.316,24.899l-100.689-0.919c-0.194,2.625-0.524,5.188-0.843,7.931l-24.918-2.622
			c0.258-1.945,0.471-3.725,0.651-5.626l-98.969-1.026l-0.286,77.612c53.783,1.239,113.976,11.059,175.085,36.725l-9.543,23.122
			c-57.451-24.104-114.505-33.271-165.633-34.389l-0.361,110.479c7.061,0.164,14.404,0.073,21.914-0.167l0.923,25.005
			C319.176,637.434,313.598,637.584,308.09,637.584z M207.133,597.089c20.288,6.895,43.481,11.823,69.604,14.118l0.571-109.24
			c-33.466,0.859-63.689,4.735-89.207,9.729c4.958,27.901,12.785,58.406,22.481,86.539L207.133,597.089z M111.907,532.521
			c16.906,20.196,39.105,39.019,68.185,53.346c-7.03-23.045-12.503-46.182-16.649-68.877
			C139.039,522.885,121.213,529.067,111.907,532.521z M58.14,400.645c0.366,6.594,4.84,59.728,38.322,110.869
			c6.292-2.563,28.884-11.447,62.966-19.665c-4.613-32.489-6.633-64.25-6.887-94.61l-94.37-0.89
			C58.14,397.734,58.14,399.168,58.14,400.645z M178.235,397.448c0,28.584,1.812,58.596,5.947,89.091
			c26.69-5.156,58.304-9.383,93.127-10.106l0.362-77.854L178.235,397.448z M302.829,373.681l100.55,1.222
			c1.888-37.871-0.452-72.364-4.613-102.061c-33.256,7.029-65.545,9.94-95.619,10.302L302.829,373.681z M178.375,372.458
			l99.387,1.071l0.438-90.627c-34.086-1.251-64.821-5.428-90.628-10.617C183.019,301.877,179.472,335.945,178.375,372.458z
			 M59.63,371.175l93.192,1.011c1.102-38.716,4.966-74.413,9.745-105.513c-35.927-8.958-60.815-19.35-63.226-20.496l7.015-9.654
			C82.692,268.469,64.835,311.936,59.63,371.175z M303.717,148.944l-0.439,108.681c28.897-0.196,59.651-3.182,91.567-9.698
			c-8.028-43.813-19.185-74.293-23.637-85.485C351.395,155.761,329.043,151.069,303.717,148.944z M191.734,247.142
			c24.706,4.873,54.07,8.915,86.467,10.287l0.494-109.118c-13.015,0.724-37.811,3.515-66.356,13
			C208.703,172.939,199.609,203.844,191.734,247.142z M402.641,175.791c5.354,16.09,11.688,38.639,16.815,66.254
			c15.688-4.133,31.537-9.334,47.463-15.671C450.781,207.733,429.805,189.726,402.641,175.791z M115.089,225.62
			c7.134,2.761,25.397,9.366,51.716,15.929c5.31-28.506,11.19-51.823,15.748-67.96C159.309,184.915,135.543,201.489,115.089,225.62z
			"/>
	</g>
	<g>
		<path fill="#FFFFFF" d="M452.786,382.881c0,0,64.069-64.007,99.92-38.037c0,0,42.188,19.53-36.878,103.025l23.76,151.918
			l-41.191,34.719L431.19,531.407l-66.071,46.515l4.298,58.652l-32.593,20.663l-24.918-65.155l-68.379-29.215l19.561-31.46
			l59.574,1.114l46.756-64.007l-98.729-70.462l33.604-36.892L452.786,382.881L452.786,382.881z"/>
	</g>
	<g>
		<path d="M332.72,669.754l-27.373-71.29l-74.02-31.734l27.239-43.769l60.055,1.102l39.043-53.674l-99.49-70.994l42.932-47.085
			l148.997,21.704c10.937-10.347,49.228-43.722,82.394-43.722c9.262,0,17.465,2.608,24.63,7.405
			c2.925,1.658,11.822,7.691,14.432,21.31c4.376,22.669-11.444,53.512-46.828,91.548l23.938,152.479l-51.988,43.918l-67.81-103.746
			l-55.094,38.911l4.27,58.878L332.72,669.754z M255.82,559.01l62.677,26.857l22.487,58.909l19.642-12.563l-4.347-58.324
			l77.115-54.352l66.917,102.405l30.377-25.641L506.84,445.14l2.959-2.974c43.434-45.968,47.222-69.526,45.471-79.451
			c-1.223-7.6-6.063-10.269-6.243-10.361l-1.267-0.724c-4.328-3.09-9.23-4.629-15.265-4.629c-26.118,0-62.077,30.09-73.66,41.686
			l-2.984,2.987L307.488,370.03l-24.264,26.682l97.866,69.857l-54.179,74.386l-59.239-1.204L255.82,559.01z"/>
	</g>
	<g>
		<path d="M535.271,393.647c0,0-8.081-17.69-26.046-29.273c0,0,11.43-5.038,21.479,6.606c0,0,8.415,6.11,6.527,19.125l-0.602,2.112
			L535.271,393.647L535.271,393.647z"/>
		<path d="M535.107,395.293l-0.62-1.327c-0.076-0.09-8.328-17.527-25.684-28.807l-1.433-1.01l1.535-0.515
			c0.108-0.104,2.641-1.266,6.486-1.266c4.161,0,10.289,1.433,16.033,8.039c0.286,0.09,8.806,6.319,6.771,19.938l-0.847,2.474
			L535.107,395.293z M511.368,364.647c14.25,9.771,21.986,23.482,24.098,27.524l0.456-0.498l0.524-1.75
			c1.752-12.308-5.884-17.948-6.2-18.189c-5.41-6.319-11.036-7.585-14.854-7.585C513.746,364.149,512.365,364.374,511.368,364.647z"
			/>
	</g>
</g>
</svg>
